<mxfile host="app.diagrams.net" modified="2024-07-22T10:43:41.344Z" agent="Mozilla/5.0 (Windows NT 10.0; Win64; x64) AppleWebKit/537.36 (KHTML, like Gecko) Chrome/126.0.0.0 Safari/537.36" etag="H26FFIONGlvDiKKrrlGf" version="24.7.1" type="device">
  <diagram name="Page-1" id="LN6mo5ZOjEffFnH4DGH2">
    <mxGraphModel dx="1900" dy="557" grid="1" gridSize="10" guides="1" tooltips="1" connect="1" arrows="1" fold="1" page="1" pageScale="1" pageWidth="850" pageHeight="1100" background="none" math="0" shadow="0">
      <root>
        <mxCell id="0" />
        <mxCell id="1" parent="0" />
        <mxCell id="4_WTCp5NJWWzPTGtUH8Z-4" style="edgeStyle=orthogonalEdgeStyle;rounded=0;orthogonalLoop=1;jettySize=auto;html=1;entryX=0;entryY=0.5;entryDx=0;entryDy=0;labelBackgroundColor=none;fontColor=default;" parent="1" source="4_WTCp5NJWWzPTGtUH8Z-1" target="4_WTCp5NJWWzPTGtUH8Z-2" edge="1">
          <mxGeometry relative="1" as="geometry" />
        </mxCell>
        <mxCell id="4_WTCp5NJWWzPTGtUH8Z-35" style="edgeStyle=orthogonalEdgeStyle;rounded=0;orthogonalLoop=1;jettySize=auto;html=1;labelBackgroundColor=none;fontColor=default;" parent="1" source="4_WTCp5NJWWzPTGtUH8Z-1" edge="1">
          <mxGeometry relative="1" as="geometry">
            <mxPoint y="690" as="targetPoint" />
            <Array as="points">
              <mxPoint x="-30" y="470" />
              <mxPoint x="-30" y="690" />
            </Array>
          </mxGeometry>
        </mxCell>
        <mxCell id="4_WTCp5NJWWzPTGtUH8Z-1" value="User" style="rounded=1;arcSize=10;whiteSpace=wrap;html=1;align=center;labelBackgroundColor=none;" parent="1" vertex="1">
          <mxGeometry x="70" y="450" width="100" height="40" as="geometry" />
        </mxCell>
        <mxCell id="4_WTCp5NJWWzPTGtUH8Z-6" style="edgeStyle=orthogonalEdgeStyle;rounded=0;orthogonalLoop=1;jettySize=auto;html=1;entryX=0;entryY=0.5;entryDx=0;entryDy=0;labelBackgroundColor=none;fontColor=default;" parent="1" source="4_WTCp5NJWWzPTGtUH8Z-2" target="4_WTCp5NJWWzPTGtUH8Z-5" edge="1">
          <mxGeometry relative="1" as="geometry" />
        </mxCell>
        <mxCell id="4_WTCp5NJWWzPTGtUH8Z-2" value="makes" style="shape=rhombus;perimeter=rhombusPerimeter;whiteSpace=wrap;html=1;align=center;labelBackgroundColor=none;" parent="1" vertex="1">
          <mxGeometry x="230" y="440" width="120" height="60" as="geometry" />
        </mxCell>
        <mxCell id="4_WTCp5NJWWzPTGtUH8Z-33" style="edgeStyle=orthogonalEdgeStyle;rounded=0;orthogonalLoop=1;jettySize=auto;html=1;entryX=0;entryY=0.5;entryDx=0;entryDy=0;labelBackgroundColor=none;fontColor=default;" parent="1" source="4_WTCp5NJWWzPTGtUH8Z-5" target="4_WTCp5NJWWzPTGtUH8Z-32" edge="1">
          <mxGeometry relative="1" as="geometry" />
        </mxCell>
        <mxCell id="4_WTCp5NJWWzPTGtUH8Z-56" style="edgeStyle=orthogonalEdgeStyle;rounded=0;orthogonalLoop=1;jettySize=auto;html=1;entryX=0.5;entryY=1;entryDx=0;entryDy=0;labelBackgroundColor=none;fontColor=default;" parent="1" source="4_WTCp5NJWWzPTGtUH8Z-5" target="4_WTCp5NJWWzPTGtUH8Z-13" edge="1">
          <mxGeometry relative="1" as="geometry" />
        </mxCell>
        <mxCell id="4_WTCp5NJWWzPTGtUH8Z-60" style="edgeStyle=orthogonalEdgeStyle;rounded=0;orthogonalLoop=1;jettySize=auto;html=1;labelBackgroundColor=none;fontColor=default;" parent="1" source="4_WTCp5NJWWzPTGtUH8Z-5" target="4_WTCp5NJWWzPTGtUH8Z-12" edge="1">
          <mxGeometry relative="1" as="geometry" />
        </mxCell>
        <mxCell id="4_WTCp5NJWWzPTGtUH8Z-61" style="edgeStyle=orthogonalEdgeStyle;rounded=0;orthogonalLoop=1;jettySize=auto;html=1;entryX=0.5;entryY=1;entryDx=0;entryDy=0;labelBackgroundColor=none;fontColor=default;" parent="1" source="4_WTCp5NJWWzPTGtUH8Z-5" target="4_WTCp5NJWWzPTGtUH8Z-23" edge="1">
          <mxGeometry relative="1" as="geometry">
            <Array as="points">
              <mxPoint x="450" y="430" />
              <mxPoint x="350" y="430" />
            </Array>
          </mxGeometry>
        </mxCell>
        <mxCell id="4_WTCp5NJWWzPTGtUH8Z-63" style="edgeStyle=orthogonalEdgeStyle;rounded=0;orthogonalLoop=1;jettySize=auto;html=1;entryX=0.5;entryY=0;entryDx=0;entryDy=0;labelBackgroundColor=none;fontColor=default;" parent="1" source="4_WTCp5NJWWzPTGtUH8Z-5" target="4_WTCp5NJWWzPTGtUH8Z-62" edge="1">
          <mxGeometry relative="1" as="geometry" />
        </mxCell>
        <mxCell id="4_WTCp5NJWWzPTGtUH8Z-5" value="Order" style="whiteSpace=wrap;html=1;align=center;labelBackgroundColor=none;" parent="1" vertex="1">
          <mxGeometry x="400" y="450" width="100" height="40" as="geometry" />
        </mxCell>
        <mxCell id="4_WTCp5NJWWzPTGtUH8Z-7" value="UserId" style="ellipse;whiteSpace=wrap;html=1;align=center;fontStyle=4;labelBackgroundColor=none;" parent="1" vertex="1">
          <mxGeometry y="530" width="100" height="40" as="geometry" />
        </mxCell>
        <mxCell id="4_WTCp5NJWWzPTGtUH8Z-10" value="UserName" style="ellipse;whiteSpace=wrap;html=1;align=center;labelBackgroundColor=none;" parent="1" vertex="1">
          <mxGeometry x="80" y="600" width="100" height="40" as="geometry" />
        </mxCell>
        <mxCell id="4_WTCp5NJWWzPTGtUH8Z-11" value="Email" style="ellipse;whiteSpace=wrap;html=1;align=center;labelBackgroundColor=none;" parent="1" vertex="1">
          <mxGeometry x="170" y="530" width="100" height="40" as="geometry" />
        </mxCell>
        <mxCell id="4_WTCp5NJWWzPTGtUH8Z-12" value="OrderDate" style="ellipse;whiteSpace=wrap;html=1;align=center;labelBackgroundColor=none;" parent="1" vertex="1">
          <mxGeometry x="500" y="360" width="100" height="40" as="geometry" />
        </mxCell>
        <mxCell id="4_WTCp5NJWWzPTGtUH8Z-13" value="OrderAmount" style="ellipse;whiteSpace=wrap;html=1;align=center;labelBackgroundColor=none;" parent="1" vertex="1">
          <mxGeometry x="400" y="300" width="100" height="40" as="geometry" />
        </mxCell>
        <mxCell id="4_WTCp5NJWWzPTGtUH8Z-14" style="edgeStyle=orthogonalEdgeStyle;rounded=0;orthogonalLoop=1;jettySize=auto;html=1;labelBackgroundColor=none;fontColor=default;" parent="1" source="4_WTCp5NJWWzPTGtUH8Z-1" edge="1">
          <mxGeometry relative="1" as="geometry">
            <mxPoint x="50" y="530" as="targetPoint" />
            <Array as="points">
              <mxPoint x="120" y="510" />
              <mxPoint x="50" y="510" />
              <mxPoint x="50" y="530" />
            </Array>
          </mxGeometry>
        </mxCell>
        <mxCell id="4_WTCp5NJWWzPTGtUH8Z-15" style="edgeStyle=orthogonalEdgeStyle;rounded=0;orthogonalLoop=1;jettySize=auto;html=1;entryX=0.26;entryY=0.075;entryDx=0;entryDy=0;entryPerimeter=0;labelBackgroundColor=none;fontColor=default;" parent="1" source="4_WTCp5NJWWzPTGtUH8Z-1" target="4_WTCp5NJWWzPTGtUH8Z-11" edge="1">
          <mxGeometry relative="1" as="geometry" />
        </mxCell>
        <mxCell id="4_WTCp5NJWWzPTGtUH8Z-18" style="edgeStyle=orthogonalEdgeStyle;rounded=0;orthogonalLoop=1;jettySize=auto;html=1;entryX=0.39;entryY=-0.075;entryDx=0;entryDy=0;entryPerimeter=0;labelBackgroundColor=none;fontColor=default;" parent="1" source="4_WTCp5NJWWzPTGtUH8Z-1" target="4_WTCp5NJWWzPTGtUH8Z-10" edge="1">
          <mxGeometry relative="1" as="geometry" />
        </mxCell>
        <mxCell id="4_WTCp5NJWWzPTGtUH8Z-23" value="OrderNo" style="ellipse;whiteSpace=wrap;html=1;align=center;labelBackgroundColor=none;" parent="1" vertex="1">
          <mxGeometry x="300" y="370" width="100" height="40" as="geometry" />
        </mxCell>
        <mxCell id="4_WTCp5NJWWzPTGtUH8Z-29" style="edgeStyle=orthogonalEdgeStyle;rounded=0;orthogonalLoop=1;jettySize=auto;html=1;entryX=0.5;entryY=0;entryDx=0;entryDy=0;labelBackgroundColor=none;fontColor=default;" parent="1" source="4_WTCp5NJWWzPTGtUH8Z-25" target="4_WTCp5NJWWzPTGtUH8Z-28" edge="1">
          <mxGeometry relative="1" as="geometry" />
        </mxCell>
        <mxCell id="4_WTCp5NJWWzPTGtUH8Z-30" style="edgeStyle=orthogonalEdgeStyle;rounded=0;orthogonalLoop=1;jettySize=auto;html=1;entryX=0.5;entryY=0;entryDx=0;entryDy=0;labelBackgroundColor=none;fontColor=default;" parent="1" source="4_WTCp5NJWWzPTGtUH8Z-25" target="4_WTCp5NJWWzPTGtUH8Z-26" edge="1">
          <mxGeometry relative="1" as="geometry" />
        </mxCell>
        <mxCell id="4_WTCp5NJWWzPTGtUH8Z-31" style="edgeStyle=orthogonalEdgeStyle;rounded=0;orthogonalLoop=1;jettySize=auto;html=1;entryX=0.5;entryY=0;entryDx=0;entryDy=0;labelBackgroundColor=none;fontColor=default;" parent="1" source="4_WTCp5NJWWzPTGtUH8Z-25" target="4_WTCp5NJWWzPTGtUH8Z-27" edge="1">
          <mxGeometry relative="1" as="geometry" />
        </mxCell>
        <mxCell id="4_WTCp5NJWWzPTGtUH8Z-25" value="Product" style="whiteSpace=wrap;html=1;align=center;labelBackgroundColor=none;" parent="1" vertex="1">
          <mxGeometry x="690" y="450" width="100" height="40" as="geometry" />
        </mxCell>
        <mxCell id="4_WTCp5NJWWzPTGtUH8Z-26" value="PId" style="ellipse;whiteSpace=wrap;html=1;align=center;fontStyle=4;labelBackgroundColor=none;" parent="1" vertex="1">
          <mxGeometry x="610" y="530" width="100" height="40" as="geometry" />
        </mxCell>
        <mxCell id="4_WTCp5NJWWzPTGtUH8Z-27" value="Price" style="ellipse;whiteSpace=wrap;html=1;align=center;labelBackgroundColor=none;" parent="1" vertex="1">
          <mxGeometry x="760" y="530" width="100" height="40" as="geometry" />
        </mxCell>
        <mxCell id="4_WTCp5NJWWzPTGtUH8Z-28" value="Name" style="ellipse;whiteSpace=wrap;html=1;align=center;labelBackgroundColor=none;" parent="1" vertex="1">
          <mxGeometry x="690" y="600" width="100" height="40" as="geometry" />
        </mxCell>
        <mxCell id="4_WTCp5NJWWzPTGtUH8Z-34" style="edgeStyle=orthogonalEdgeStyle;rounded=0;orthogonalLoop=1;jettySize=auto;html=1;entryX=0;entryY=0.5;entryDx=0;entryDy=0;labelBackgroundColor=none;fontColor=default;" parent="1" source="4_WTCp5NJWWzPTGtUH8Z-32" target="4_WTCp5NJWWzPTGtUH8Z-25" edge="1">
          <mxGeometry relative="1" as="geometry" />
        </mxCell>
        <mxCell id="4_WTCp5NJWWzPTGtUH8Z-32" value="contains" style="shape=rhombus;perimeter=rhombusPerimeter;whiteSpace=wrap;html=1;align=center;labelBackgroundColor=none;" parent="1" vertex="1">
          <mxGeometry x="540" y="440" width="120" height="60" as="geometry" />
        </mxCell>
        <mxCell id="4_WTCp5NJWWzPTGtUH8Z-38" style="edgeStyle=orthogonalEdgeStyle;rounded=0;orthogonalLoop=1;jettySize=auto;html=1;entryX=0;entryY=0.5;entryDx=0;entryDy=0;labelBackgroundColor=none;fontColor=default;" parent="1" source="4_WTCp5NJWWzPTGtUH8Z-36" target="4_WTCp5NJWWzPTGtUH8Z-37" edge="1">
          <mxGeometry relative="1" as="geometry" />
        </mxCell>
        <mxCell id="4_WTCp5NJWWzPTGtUH8Z-36" value="makes" style="shape=rhombus;perimeter=rhombusPerimeter;whiteSpace=wrap;html=1;align=center;labelBackgroundColor=none;" parent="1" vertex="1">
          <mxGeometry y="660" width="120" height="60" as="geometry" />
        </mxCell>
        <mxCell id="4_WTCp5NJWWzPTGtUH8Z-42" style="edgeStyle=orthogonalEdgeStyle;rounded=0;orthogonalLoop=1;jettySize=auto;html=1;entryX=0.5;entryY=0;entryDx=0;entryDy=0;labelBackgroundColor=none;fontColor=default;" parent="1" source="4_WTCp5NJWWzPTGtUH8Z-37" target="4_WTCp5NJWWzPTGtUH8Z-40" edge="1">
          <mxGeometry relative="1" as="geometry" />
        </mxCell>
        <mxCell id="4_WTCp5NJWWzPTGtUH8Z-43" style="edgeStyle=orthogonalEdgeStyle;rounded=0;orthogonalLoop=1;jettySize=auto;html=1;entryX=0.5;entryY=0;entryDx=0;entryDy=0;labelBackgroundColor=none;fontColor=default;" parent="1" source="4_WTCp5NJWWzPTGtUH8Z-37" target="4_WTCp5NJWWzPTGtUH8Z-39" edge="1">
          <mxGeometry relative="1" as="geometry" />
        </mxCell>
        <mxCell id="4_WTCp5NJWWzPTGtUH8Z-44" style="edgeStyle=orthogonalEdgeStyle;rounded=0;orthogonalLoop=1;jettySize=auto;html=1;labelBackgroundColor=none;fontColor=default;" parent="1" source="4_WTCp5NJWWzPTGtUH8Z-37" target="4_WTCp5NJWWzPTGtUH8Z-41" edge="1">
          <mxGeometry relative="1" as="geometry" />
        </mxCell>
        <mxCell id="4_WTCp5NJWWzPTGtUH8Z-37" value="Payment" style="rounded=1;arcSize=10;whiteSpace=wrap;html=1;align=center;labelBackgroundColor=none;" parent="1" vertex="1">
          <mxGeometry x="170" y="670" width="100" height="40" as="geometry" />
        </mxCell>
        <mxCell id="4_WTCp5NJWWzPTGtUH8Z-39" value="PId" style="ellipse;whiteSpace=wrap;html=1;align=center;fontStyle=4;labelBackgroundColor=none;" parent="1" vertex="1">
          <mxGeometry x="80" y="750" width="100" height="40" as="geometry" />
        </mxCell>
        <mxCell id="4_WTCp5NJWWzPTGtUH8Z-40" value="Method" style="ellipse;whiteSpace=wrap;html=1;align=center;labelBackgroundColor=none;" parent="1" vertex="1">
          <mxGeometry x="170" y="800" width="100" height="40" as="geometry" />
        </mxCell>
        <mxCell id="4_WTCp5NJWWzPTGtUH8Z-41" value="Amount" style="ellipse;whiteSpace=wrap;html=1;align=center;labelBackgroundColor=none;" parent="1" vertex="1">
          <mxGeometry x="270" y="750" width="100" height="40" as="geometry" />
        </mxCell>
        <mxCell id="4_WTCp5NJWWzPTGtUH8Z-48" style="edgeStyle=orthogonalEdgeStyle;rounded=0;orthogonalLoop=1;jettySize=auto;html=1;entryX=0;entryY=0.5;entryDx=0;entryDy=0;labelBackgroundColor=none;fontColor=default;" parent="1" source="4_WTCp5NJWWzPTGtUH8Z-45" target="4_WTCp5NJWWzPTGtUH8Z-46" edge="1">
          <mxGeometry relative="1" as="geometry" />
        </mxCell>
        <mxCell id="4_WTCp5NJWWzPTGtUH8Z-53" style="edgeStyle=orthogonalEdgeStyle;rounded=0;orthogonalLoop=1;jettySize=auto;html=1;labelBackgroundColor=none;fontColor=default;" parent="1" source="4_WTCp5NJWWzPTGtUH8Z-45" edge="1">
          <mxGeometry relative="1" as="geometry">
            <mxPoint x="450" y="130" as="targetPoint" />
          </mxGeometry>
        </mxCell>
        <mxCell id="4_WTCp5NJWWzPTGtUH8Z-54" style="edgeStyle=orthogonalEdgeStyle;rounded=0;orthogonalLoop=1;jettySize=auto;html=1;labelBackgroundColor=none;fontColor=default;" parent="1" source="4_WTCp5NJWWzPTGtUH8Z-45" edge="1">
          <mxGeometry relative="1" as="geometry">
            <mxPoint x="450.00000000000045" y="210" as="targetPoint" />
          </mxGeometry>
        </mxCell>
        <mxCell id="4_WTCp5NJWWzPTGtUH8Z-55" style="edgeStyle=orthogonalEdgeStyle;rounded=0;orthogonalLoop=1;jettySize=auto;html=1;entryX=0;entryY=0.5;entryDx=0;entryDy=0;labelBackgroundColor=none;fontColor=default;" parent="1" source="4_WTCp5NJWWzPTGtUH8Z-45" target="4_WTCp5NJWWzPTGtUH8Z-52" edge="1">
          <mxGeometry relative="1" as="geometry" />
        </mxCell>
        <mxCell id="4_WTCp5NJWWzPTGtUH8Z-45" value="Supplier" style="rounded=1;arcSize=10;whiteSpace=wrap;html=1;align=center;labelBackgroundColor=none;" parent="1" vertex="1">
          <mxGeometry x="500" y="150" width="100" height="40" as="geometry" />
        </mxCell>
        <mxCell id="4_WTCp5NJWWzPTGtUH8Z-49" style="edgeStyle=orthogonalEdgeStyle;rounded=0;orthogonalLoop=1;jettySize=auto;html=1;entryX=0.5;entryY=0;entryDx=0;entryDy=0;labelBackgroundColor=none;fontColor=default;" parent="1" source="4_WTCp5NJWWzPTGtUH8Z-46" target="4_WTCp5NJWWzPTGtUH8Z-25" edge="1">
          <mxGeometry relative="1" as="geometry" />
        </mxCell>
        <mxCell id="4_WTCp5NJWWzPTGtUH8Z-46" value="supplies" style="shape=rhombus;perimeter=rhombusPerimeter;whiteSpace=wrap;html=1;align=center;labelBackgroundColor=none;" parent="1" vertex="1">
          <mxGeometry x="680" y="140" width="120" height="60" as="geometry" />
        </mxCell>
        <mxCell id="4_WTCp5NJWWzPTGtUH8Z-50" value="SId" style="ellipse;whiteSpace=wrap;html=1;align=center;fontStyle=4;labelBackgroundColor=none;" parent="1" vertex="1">
          <mxGeometry x="410" y="80" width="100" height="40" as="geometry" />
        </mxCell>
        <mxCell id="4_WTCp5NJWWzPTGtUH8Z-51" value="Name&lt;span style=&quot;color: rgba(0, 0, 0, 0); font-family: monospace; font-size: 0px; text-align: start; text-wrap: nowrap;&quot;&gt;%3CmxGraphModel%3E%3Croot%3E%3CmxCell%20id%3D%220%22%2F%3E%3CmxCell%20id%3D%221%22%20parent%3D%220%22%2F%3E%3CmxCell%20id%3D%222%22%20value%3D%22Email%22%20style%3D%22ellipse%3BwhiteSpace%3Dwrap%3Bhtml%3D1%3Balign%3Dcenter%3B%22%20vertex%3D%221%22%20parent%3D%221%22%3E%3CmxGeometry%20x%3D%22170%22%20y%3D%22350%22%20width%3D%22100%22%20height%3D%2240%22%20as%3D%22geometry%22%2F%3E%3C%2FmxCell%3E%3C%2Froot%3E%3C%2FmxGraphModel%3E&lt;/span&gt;" style="ellipse;whiteSpace=wrap;html=1;align=center;labelBackgroundColor=none;" parent="1" vertex="1">
          <mxGeometry x="400" y="220" width="100" height="40" as="geometry" />
        </mxCell>
        <mxCell id="4_WTCp5NJWWzPTGtUH8Z-52" value="Contact" style="ellipse;whiteSpace=wrap;html=1;align=center;labelBackgroundColor=none;" parent="1" vertex="1">
          <mxGeometry x="570" y="80" width="100" height="40" as="geometry" />
        </mxCell>
        <mxCell id="4_WTCp5NJWWzPTGtUH8Z-65" style="edgeStyle=orthogonalEdgeStyle;rounded=0;orthogonalLoop=1;jettySize=auto;html=1;entryX=0.5;entryY=0;entryDx=0;entryDy=0;labelBackgroundColor=none;fontColor=default;" parent="1" source="4_WTCp5NJWWzPTGtUH8Z-62" target="4_WTCp5NJWWzPTGtUH8Z-64" edge="1">
          <mxGeometry relative="1" as="geometry" />
        </mxCell>
        <mxCell id="4_WTCp5NJWWzPTGtUH8Z-62" value="has" style="shape=rhombus;perimeter=rhombusPerimeter;whiteSpace=wrap;html=1;align=center;labelBackgroundColor=none;" parent="1" vertex="1">
          <mxGeometry x="390" y="580" width="120" height="60" as="geometry" />
        </mxCell>
        <mxCell id="4_WTCp5NJWWzPTGtUH8Z-69" style="edgeStyle=orthogonalEdgeStyle;rounded=0;orthogonalLoop=1;jettySize=auto;html=1;entryX=0;entryY=0.5;entryDx=0;entryDy=0;labelBackgroundColor=none;fontColor=default;" parent="1" source="4_WTCp5NJWWzPTGtUH8Z-64" target="4_WTCp5NJWWzPTGtUH8Z-67" edge="1">
          <mxGeometry relative="1" as="geometry" />
        </mxCell>
        <mxCell id="4_WTCp5NJWWzPTGtUH8Z-71" style="edgeStyle=orthogonalEdgeStyle;rounded=0;orthogonalLoop=1;jettySize=auto;html=1;entryX=0;entryY=0.5;entryDx=0;entryDy=0;labelBackgroundColor=none;fontColor=default;" parent="1" source="4_WTCp5NJWWzPTGtUH8Z-64" target="4_WTCp5NJWWzPTGtUH8Z-68" edge="1">
          <mxGeometry relative="1" as="geometry" />
        </mxCell>
        <mxCell id="4_WTCp5NJWWzPTGtUH8Z-64" value="Tracking Detail" style="whiteSpace=wrap;html=1;align=center;labelBackgroundColor=none;" parent="1" vertex="1">
          <mxGeometry x="400" y="700" width="100" height="40" as="geometry" />
        </mxCell>
        <mxCell id="4_WTCp5NJWWzPTGtUH8Z-66" value="TId" style="ellipse;whiteSpace=wrap;html=1;align=center;fontStyle=4;labelBackgroundColor=none;" parent="1" vertex="1">
          <mxGeometry x="390" y="790" width="100" height="40" as="geometry" />
        </mxCell>
        <mxCell id="4_WTCp5NJWWzPTGtUH8Z-67" value="Status" style="ellipse;whiteSpace=wrap;html=1;align=center;labelBackgroundColor=none;" parent="1" vertex="1">
          <mxGeometry x="570" y="700" width="100" height="40" as="geometry" />
        </mxCell>
        <mxCell id="4_WTCp5NJWWzPTGtUH8Z-68" value="OrderNo" style="ellipse;whiteSpace=wrap;html=1;align=center;labelBackgroundColor=none;" parent="1" vertex="1">
          <mxGeometry x="560" y="790" width="100" height="40" as="geometry" />
        </mxCell>
        <mxCell id="4_WTCp5NJWWzPTGtUH8Z-70" style="edgeStyle=orthogonalEdgeStyle;rounded=0;orthogonalLoop=1;jettySize=auto;html=1;entryX=0.6;entryY=0.031;entryDx=0;entryDy=0;entryPerimeter=0;labelBackgroundColor=none;fontColor=default;" parent="1" source="4_WTCp5NJWWzPTGtUH8Z-64" target="4_WTCp5NJWWzPTGtUH8Z-66" edge="1">
          <mxGeometry relative="1" as="geometry" />
        </mxCell>
        <mxCell id="4_WTCp5NJWWzPTGtUH8Z-76" style="edgeStyle=orthogonalEdgeStyle;rounded=0;orthogonalLoop=1;jettySize=auto;html=1;entryX=1;entryY=0.5;entryDx=0;entryDy=0;labelBackgroundColor=none;fontColor=default;" parent="1" source="4_WTCp5NJWWzPTGtUH8Z-72" target="4_WTCp5NJWWzPTGtUH8Z-73" edge="1">
          <mxGeometry relative="1" as="geometry" />
        </mxCell>
        <mxCell id="4_WTCp5NJWWzPTGtUH8Z-79" style="edgeStyle=orthogonalEdgeStyle;rounded=0;orthogonalLoop=1;jettySize=auto;html=1;labelBackgroundColor=none;fontColor=default;" parent="1" source="4_WTCp5NJWWzPTGtUH8Z-72" target="4_WTCp5NJWWzPTGtUH8Z-75" edge="1">
          <mxGeometry relative="1" as="geometry" />
        </mxCell>
        <mxCell id="4_WTCp5NJWWzPTGtUH8Z-81" style="edgeStyle=orthogonalEdgeStyle;rounded=0;orthogonalLoop=1;jettySize=auto;html=1;entryX=0.5;entryY=0;entryDx=0;entryDy=0;labelBackgroundColor=none;fontColor=default;" parent="1" source="4_WTCp5NJWWzPTGtUH8Z-72" target="4_WTCp5NJWWzPTGtUH8Z-80" edge="1">
          <mxGeometry relative="1" as="geometry" />
        </mxCell>
        <mxCell id="4_WTCp5NJWWzPTGtUH8Z-72" value="Admin" style="rounded=1;arcSize=10;whiteSpace=wrap;html=1;align=center;labelBackgroundColor=none;" parent="1" vertex="1">
          <mxGeometry x="70" y="240" width="100" height="40" as="geometry" />
        </mxCell>
        <mxCell id="4_WTCp5NJWWzPTGtUH8Z-73" value="AdminId" style="ellipse;whiteSpace=wrap;html=1;align=center;fontStyle=4;labelBackgroundColor=none;" parent="1" vertex="1">
          <mxGeometry y="160" width="100" height="40" as="geometry" />
        </mxCell>
        <mxCell id="4_WTCp5NJWWzPTGtUH8Z-74" value="Name" style="ellipse;whiteSpace=wrap;html=1;align=center;labelBackgroundColor=none;" parent="1" vertex="1">
          <mxGeometry x="180" y="160" width="100" height="40" as="geometry" />
        </mxCell>
        <mxCell id="4_WTCp5NJWWzPTGtUH8Z-75" value="Role" style="ellipse;whiteSpace=wrap;html=1;align=center;labelBackgroundColor=none;" parent="1" vertex="1">
          <mxGeometry x="190" y="310" width="100" height="40" as="geometry" />
        </mxCell>
        <mxCell id="4_WTCp5NJWWzPTGtUH8Z-77" style="edgeStyle=orthogonalEdgeStyle;rounded=0;orthogonalLoop=1;jettySize=auto;html=1;entryX=0.3;entryY=1;entryDx=0;entryDy=0;entryPerimeter=0;labelBackgroundColor=none;fontColor=default;" parent="1" source="4_WTCp5NJWWzPTGtUH8Z-72" target="4_WTCp5NJWWzPTGtUH8Z-74" edge="1">
          <mxGeometry relative="1" as="geometry" />
        </mxCell>
        <mxCell id="4_WTCp5NJWWzPTGtUH8Z-82" style="edgeStyle=orthogonalEdgeStyle;rounded=0;orthogonalLoop=1;jettySize=auto;html=1;entryX=0.5;entryY=0;entryDx=0;entryDy=0;labelBackgroundColor=none;fontColor=default;" parent="1" source="4_WTCp5NJWWzPTGtUH8Z-80" target="4_WTCp5NJWWzPTGtUH8Z-1" edge="1">
          <mxGeometry relative="1" as="geometry" />
        </mxCell>
        <mxCell id="4_WTCp5NJWWzPTGtUH8Z-80" value="manage" style="shape=rhombus;perimeter=rhombusPerimeter;whiteSpace=wrap;html=1;align=center;labelBackgroundColor=none;" parent="1" vertex="1">
          <mxGeometry x="60" y="330" width="120" height="60" as="geometry" />
        </mxCell>
      </root>
    </mxGraphModel>
  </diagram>
</mxfile>
